<svg width="648" height="116" viewBox="0 0 648 116" fill="none" xmlns="http://www.w3.org/2000/svg">
<path d="M4.01436 55.8355C5.19472 91.8974 75.7213 105.684 110.837 105.437V77.4693H50.7861V39.2193H110.837V5.49353C74.7376 8.12579 2.83399 19.7735 4.01436 55.8355Z" fill="#66FCF1" stroke="#66FCF1" stroke-width="7"/>
<path d="M106.034 58.3856C106.034 60.9713 104.092 63.7487 99.9862 65.9958C95.9545 68.2024 90.2484 69.6292 83.8363 69.6292C77.4241 69.6292 71.718 68.2024 67.6863 65.9958C63.5805 63.7487 61.6389 60.9713 61.6389 58.3856C61.6389 55.8 63.5805 53.0226 67.6863 50.7755C71.718 48.5689 77.4241 47.1421 83.8363 47.1421C90.2484 47.1421 95.9545 48.5689 99.9862 50.7755C104.092 53.0226 106.034 55.8 106.034 58.3856Z" stroke="#66FCF1" stroke-width="4"/>
<path d="M206.594 56.0824C206.594 11.2517 152.641 2.31299 119.542 5.74041V106.177C144.772 106.616 206.594 102.229 206.594 56.0824Z" fill="#66FCF1"/>
<path d="M218.397 5.74041V106.177H303.531V94.9082H234.037V61.6759H303.531V50.3243H234.037V16.8453H303.531V5.74041H218.397Z" fill="#66FCF1"/>
<path d="M206.594 56.0824C206.594 11.2517 152.641 2.31299 119.542 5.74041V106.177C144.772 106.616 206.594 102.229 206.594 56.0824Z" stroke="#66FCF1" stroke-width="7"/>
<path d="M218.397 5.74041V106.177H303.531V94.9082H234.037V61.6759H303.531V50.3243H234.037V16.8453H303.531V5.74041H218.397Z" stroke="#66FCF1" stroke-width="7"/>
<path d="M450 5V105.437H535.134V94.1678H465.64V60.9355H535.134V49.5839H500.387H465.64V16.1049H535.134V5H450Z" fill="#66FCF1" stroke="#66FCF1" stroke-width="7"/>
<path d="M312 13H376.625M441.25 13H376.625M376.625 13V61.6145M376.625 110.229V61.6145M376.625 61.6145C394.33 58.3242 425.344 56.2184 426.052 74.1178C426.761 92.0171 426.347 105.65 426.052 110.229" stroke="#66FCF1" stroke-width="18"/>
<path d="M553 61.3062V9.40132C585.607 7.72874 622.641 10.2239 622.641 37.6981C622.641 62.1288 580.493 63.9933 553 61.3062ZM553 61.3062L643.15 107.371" stroke="#66FCF1" stroke-width="18"/>
</svg>
