<svg width="308" height="109" viewBox="0 0 308 109" fill="none" xmlns="http://www.w3.org/2000/svg">
<path d="M4.01436 54.7548C5.19472 90.8167 75.7213 104.603 110.837 104.356V76.3887H50.7861V38.1387H110.837V4.41284C74.7376 7.0451 2.83399 18.6928 4.01436 54.7548Z" fill="#66FCF1" stroke="#66FCF1" stroke-width="7"/>
<path d="M106.034 57.305C106.034 59.8906 104.092 62.668 99.9862 64.9151C95.9545 67.1217 90.2484 68.5485 83.8363 68.5485C77.4241 68.5485 71.718 67.1217 67.6863 64.9151C63.5805 62.668 61.6389 59.8906 61.6389 57.305C61.6389 54.7193 63.5805 51.9419 67.6863 49.6948C71.718 47.4882 77.4241 46.0614 83.8363 46.0614C90.2484 46.0614 95.9545 47.4882 99.9862 49.6948C104.092 51.9419 106.034 54.7193 106.034 57.305Z" stroke="#66FCF1" stroke-width="4"/>
<path d="M206.594 55.0017C206.594 10.171 152.641 1.2323 119.542 4.65972V105.097C144.772 105.535 206.594 101.148 206.594 55.0017Z" fill="#66FCF1"/>
<path d="M218.397 4.65972V105.097H303.531V93.8275H234.037V60.5952H303.531V49.2436H234.037V15.7646H303.531V4.65972H218.397Z" fill="#66FCF1"/>
<path d="M206.594 55.0017C206.594 10.171 152.641 1.2323 119.542 4.65972V105.097C144.772 105.535 206.594 101.148 206.594 55.0017Z" stroke="#66FCF1" stroke-width="7"/>
<path d="M218.397 4.65972V105.097H303.531V93.8275H234.037V60.5952H303.531V49.2436H234.037V15.7646H303.531V4.65972H218.397Z" stroke="#66FCF1" stroke-width="7"/>
</svg>
